<svg xmlns="http://www.w3.org/2000/svg" xmlns:xlink="http://www.w3.org/1999/xlink" xmlns:a="http://ns.adobe.com/AdobeSVGViewerExtensions/3.0/" version="1.1" x="0px" y="0px" viewBox="-14.327 -6.112 100 125" enable-background="new -14.327 -6.112 100 100" xml:space="preserve"><path d="M8.824,83.505c-34.614-24.23,43.775-62.533,43.775-62.533S43.433,107.736,8.824,83.505z M24.035,62.398  c-5.797-4.053-13.39-3.201-16.964,1.902c-3.577,5.109-1.78,12.541,4.016,16.596c5.792,4.051,13.391,3.199,16.962-1.908  C31.626,73.884,29.829,66.457,24.035,62.398z M21.194,28.566c0,0-10.832,5.291-6.049,8.638  C19.928,40.553,21.194,28.566,21.194,28.566z M66.021,15.091c0,0-10.83,5.29-6.051,8.64C64.753,27.077,66.021,15.091,66.021,15.091z   M45.979,0c0,0-23.124,11.295-12.914,18.445C43.274,25.592,45.979,0,45.979,0z M71.347,31.188c0,0-23.121,11.3-12.912,18.446  C68.646,56.785,71.347,31.188,71.347,31.188z"/><text x="-14.327" y="108.888" fill="#000000" font-size="5px" font-weight="bold" font-family="'Helvetica Neue', Helvetica, Arial-Unicode, Arial, Sans-serif">Created by Lucid Formation</text><text x="-14.327" y="113.888" fill="#000000" font-size="5px" font-weight="bold" font-family="'Helvetica Neue', Helvetica, Arial-Unicode, Arial, Sans-serif">from the Noun Project</text></svg>